<mxfile host="app.diagrams.net" modified="2021-04-26T21:08:24.053Z" agent="5.0 (X11; Linux x86_64) AppleWebKit/537.36 (KHTML, like Gecko) Chrome/90.0.4430.72 Safari/537.36" etag="BAkHtRtKzDYYsHuikziV" version="14.6.6" type="github">
  <diagram id="OeMJlGWMNcZmG8MkV_QQ" name="Page-1">
    <mxGraphModel dx="1422" dy="801" grid="1" gridSize="10" guides="1" tooltips="1" connect="1" arrows="1" fold="1" page="1" pageScale="1" pageWidth="850" pageHeight="1100" math="0" shadow="0">
      <root>
        <mxCell id="0" />
        <mxCell id="1" parent="0" />
        <mxCell id="0a_yVBSJP2wJGOrJ4KRv-1" value="User" style="shape=umlActor;html=1;verticalLabelPosition=bottom;verticalAlign=top;align=center;" vertex="1" parent="1">
          <mxGeometry x="10" y="430" width="30" height="60" as="geometry" />
        </mxCell>
        <mxCell id="0a_yVBSJP2wJGOrJ4KRv-2" value="Создать сцену" style="ellipse;whiteSpace=wrap;html=1;" vertex="1" parent="1">
          <mxGeometry x="190" y="10" width="140" height="70" as="geometry" />
        </mxCell>
        <mxCell id="0a_yVBSJP2wJGOrJ4KRv-3" value="Загрузить модели" style="ellipse;whiteSpace=wrap;html=1;" vertex="1" parent="1">
          <mxGeometry x="190" y="100" width="140" height="70" as="geometry" />
        </mxCell>
        <mxCell id="0a_yVBSJP2wJGOrJ4KRv-4" value="Посмотреть загруженые модули" style="ellipse;whiteSpace=wrap;html=1;" vertex="1" parent="1">
          <mxGeometry x="190" y="210" width="140" height="70" as="geometry" />
        </mxCell>
        <mxCell id="0a_yVBSJP2wJGOrJ4KRv-5" value="Выбрать из файлов *.3DS" style="ellipse;whiteSpace=wrap;html=1;" vertex="1" parent="1">
          <mxGeometry x="460" y="40" width="140" height="70" as="geometry" />
        </mxCell>
        <mxCell id="0a_yVBSJP2wJGOrJ4KRv-6" value="&amp;lt;&amp;lt;include&amp;gt;&amp;gt;" style="edgeStyle=none;html=1;endArrow=open;verticalAlign=bottom;dashed=1;labelBackgroundColor=none;exitX=1;exitY=0.5;exitDx=0;exitDy=0;entryX=0;entryY=0.5;entryDx=0;entryDy=0;" edge="1" parent="1" source="0a_yVBSJP2wJGOrJ4KRv-3" target="0a_yVBSJP2wJGOrJ4KRv-5">
          <mxGeometry width="160" relative="1" as="geometry">
            <mxPoint x="350" y="220" as="sourcePoint" />
            <mxPoint x="510" y="220" as="targetPoint" />
          </mxGeometry>
        </mxCell>
        <mxCell id="0a_yVBSJP2wJGOrJ4KRv-7" value="Редактировать камеры" style="ellipse;whiteSpace=wrap;html=1;" vertex="1" parent="1">
          <mxGeometry x="190" y="320" width="140" height="70" as="geometry" />
        </mxCell>
        <mxCell id="0a_yVBSJP2wJGOrJ4KRv-8" value="Удалить камеру" style="ellipse;whiteSpace=wrap;html=1;" vertex="1" parent="1">
          <mxGeometry x="570" y="220" width="140" height="70" as="geometry" />
        </mxCell>
        <mxCell id="0a_yVBSJP2wJGOrJ4KRv-9" value="Просмотреть список камер" style="ellipse;whiteSpace=wrap;html=1;" vertex="1" parent="1">
          <mxGeometry x="470" y="350" width="140" height="70" as="geometry" />
        </mxCell>
        <mxCell id="0a_yVBSJP2wJGOrJ4KRv-10" value="&amp;lt;&amp;lt;include&amp;gt;&amp;gt;" style="edgeStyle=none;html=1;endArrow=open;verticalAlign=bottom;dashed=1;labelBackgroundColor=none;exitX=0.5;exitY=1;exitDx=0;exitDy=0;entryX=1;entryY=0.5;entryDx=0;entryDy=0;" edge="1" parent="1" source="0a_yVBSJP2wJGOrJ4KRv-8" target="0a_yVBSJP2wJGOrJ4KRv-9">
          <mxGeometry width="160" relative="1" as="geometry">
            <mxPoint x="350" y="570" as="sourcePoint" />
            <mxPoint x="510" y="570" as="targetPoint" />
          </mxGeometry>
        </mxCell>
        <mxCell id="0a_yVBSJP2wJGOrJ4KRv-11" value="Переключится между камерами" style="ellipse;whiteSpace=wrap;html=1;" vertex="1" parent="1">
          <mxGeometry x="190" y="420" width="140" height="70" as="geometry" />
        </mxCell>
        <mxCell id="0a_yVBSJP2wJGOrJ4KRv-12" value="&amp;lt;&amp;lt;include&amp;gt;&amp;gt;" style="edgeStyle=none;html=1;endArrow=open;verticalAlign=bottom;dashed=1;labelBackgroundColor=none;exitX=1;exitY=0.5;exitDx=0;exitDy=0;entryX=0;entryY=1;entryDx=0;entryDy=0;" edge="1" parent="1" source="0a_yVBSJP2wJGOrJ4KRv-11" target="0a_yVBSJP2wJGOrJ4KRv-9">
          <mxGeometry width="160" relative="1" as="geometry">
            <mxPoint x="290" y="450" as="sourcePoint" />
            <mxPoint x="450" y="450" as="targetPoint" />
          </mxGeometry>
        </mxCell>
        <mxCell id="0a_yVBSJP2wJGOrJ4KRv-13" value="&lt;font color=&quot;#2c2d30&quot; face=&quot;arial&quot;&gt;&lt;span style=&quot;font-size: 13.3333px&quot;&gt;Редактировать полигональную сетку&lt;/span&gt;&lt;/font&gt;" style="ellipse;whiteSpace=wrap;html=1;" vertex="1" parent="1">
          <mxGeometry x="190" y="520" width="140" height="70" as="geometry" />
        </mxCell>
        <mxCell id="0a_yVBSJP2wJGOrJ4KRv-14" value="&lt;font color=&quot;#2c2d30&quot; face=&quot;arial&quot;&gt;&lt;span style=&quot;font-size: 13.3333px&quot;&gt;Просмотр&lt;/span&gt;&lt;/font&gt;" style="ellipse;whiteSpace=wrap;html=1;" vertex="1" parent="1">
          <mxGeometry x="470" y="440" width="140" height="70" as="geometry" />
        </mxCell>
        <mxCell id="0a_yVBSJP2wJGOrJ4KRv-15" value="&lt;font color=&quot;#2c2d30&quot; face=&quot;arial&quot;&gt;&lt;span style=&quot;font-size: 13.3333px&quot;&gt;Добавление&lt;/span&gt;&lt;/font&gt;" style="ellipse;whiteSpace=wrap;html=1;" vertex="1" parent="1">
          <mxGeometry x="470" y="520" width="140" height="70" as="geometry" />
        </mxCell>
        <mxCell id="0a_yVBSJP2wJGOrJ4KRv-16" value="&lt;font color=&quot;#2c2d30&quot; face=&quot;arial&quot;&gt;&lt;span style=&quot;font-size: 13.3333px&quot;&gt;Удаление&lt;/span&gt;&lt;/font&gt;" style="ellipse;whiteSpace=wrap;html=1;" vertex="1" parent="1">
          <mxGeometry x="470" y="600" width="140" height="70" as="geometry" />
        </mxCell>
        <mxCell id="0a_yVBSJP2wJGOrJ4KRv-17" value="&amp;lt;&amp;lt;extend&amp;gt;&amp;gt;" style="edgeStyle=none;html=1;startArrow=open;endArrow=none;startSize=12;verticalAlign=bottom;dashed=1;labelBackgroundColor=none;entryX=0;entryY=0.5;entryDx=0;entryDy=0;exitX=1;exitY=0.5;exitDx=0;exitDy=0;" edge="1" parent="1" source="0a_yVBSJP2wJGOrJ4KRv-13" target="0a_yVBSJP2wJGOrJ4KRv-14">
          <mxGeometry width="160" relative="1" as="geometry">
            <mxPoint x="290" y="510" as="sourcePoint" />
            <mxPoint x="450" y="510" as="targetPoint" />
          </mxGeometry>
        </mxCell>
        <mxCell id="0a_yVBSJP2wJGOrJ4KRv-18" value="&amp;lt;&amp;lt;extend&amp;gt;&amp;gt;" style="edgeStyle=none;html=1;startArrow=open;endArrow=none;startSize=12;verticalAlign=bottom;dashed=1;labelBackgroundColor=none;entryX=0;entryY=0.5;entryDx=0;entryDy=0;" edge="1" parent="1" source="0a_yVBSJP2wJGOrJ4KRv-13" target="0a_yVBSJP2wJGOrJ4KRv-15">
          <mxGeometry width="160" relative="1" as="geometry">
            <mxPoint x="350" y="535" as="sourcePoint" />
            <mxPoint x="410" y="600" as="targetPoint" />
          </mxGeometry>
        </mxCell>
        <mxCell id="0a_yVBSJP2wJGOrJ4KRv-19" value="&amp;lt;&amp;lt;extend&amp;gt;&amp;gt;" style="edgeStyle=none;html=1;startArrow=open;endArrow=none;startSize=12;verticalAlign=bottom;dashed=1;labelBackgroundColor=none;entryX=0;entryY=0.5;entryDx=0;entryDy=0;" edge="1" parent="1" source="0a_yVBSJP2wJGOrJ4KRv-13" target="0a_yVBSJP2wJGOrJ4KRv-16">
          <mxGeometry width="160" relative="1" as="geometry">
            <mxPoint x="300" y="650" as="sourcePoint" />
            <mxPoint x="460" y="650" as="targetPoint" />
          </mxGeometry>
        </mxCell>
        <mxCell id="0a_yVBSJP2wJGOrJ4KRv-20" value="Создать камеру" style="ellipse;whiteSpace=wrap;html=1;" vertex="1" parent="1">
          <mxGeometry x="460" y="150" width="140" height="70" as="geometry" />
        </mxCell>
        <mxCell id="0a_yVBSJP2wJGOrJ4KRv-21" value="&amp;lt;&amp;lt;extend&amp;gt;&amp;gt;" style="edgeStyle=none;html=1;startArrow=open;endArrow=none;startSize=12;verticalAlign=bottom;dashed=1;labelBackgroundColor=none;entryX=0;entryY=0.5;entryDx=0;entryDy=0;exitX=1;exitY=0;exitDx=0;exitDy=0;" edge="1" parent="1" source="0a_yVBSJP2wJGOrJ4KRv-7" target="0a_yVBSJP2wJGOrJ4KRv-20">
          <mxGeometry width="160" relative="1" as="geometry">
            <mxPoint x="-20" y="390" as="sourcePoint" />
            <mxPoint x="140" y="390" as="targetPoint" />
          </mxGeometry>
        </mxCell>
        <mxCell id="0a_yVBSJP2wJGOrJ4KRv-22" value="&amp;lt;&amp;lt;extend&amp;gt;&amp;gt;" style="edgeStyle=none;html=1;startArrow=open;endArrow=none;startSize=12;verticalAlign=bottom;dashed=1;labelBackgroundColor=none;entryX=0;entryY=0.5;entryDx=0;entryDy=0;exitX=1;exitY=1;exitDx=0;exitDy=0;" edge="1" parent="1" source="0a_yVBSJP2wJGOrJ4KRv-7" target="0a_yVBSJP2wJGOrJ4KRv-8">
          <mxGeometry width="160" relative="1" as="geometry">
            <mxPoint x="20" y="480" as="sourcePoint" />
            <mxPoint x="180" y="480" as="targetPoint" />
          </mxGeometry>
        </mxCell>
        <mxCell id="0a_yVBSJP2wJGOrJ4KRv-23" value="Запустить рендер" style="ellipse;whiteSpace=wrap;html=1;" vertex="1" parent="1">
          <mxGeometry x="190" y="620" width="140" height="70" as="geometry" />
        </mxCell>
        <mxCell id="0a_yVBSJP2wJGOrJ4KRv-24" value="Сохрать в файл" style="ellipse;whiteSpace=wrap;html=1;" vertex="1" parent="1">
          <mxGeometry x="190" y="720" width="140" height="70" as="geometry" />
        </mxCell>
        <mxCell id="0a_yVBSJP2wJGOrJ4KRv-25" value="Сохрать в BMP" style="ellipse;whiteSpace=wrap;html=1;" vertex="1" parent="1">
          <mxGeometry x="460" y="700" width="140" height="70" as="geometry" />
        </mxCell>
        <mxCell id="0a_yVBSJP2wJGOrJ4KRv-26" value="Сохрать в 3D формате" style="ellipse;whiteSpace=wrap;html=1;" vertex="1" parent="1">
          <mxGeometry x="460" y="780" width="140" height="70" as="geometry" />
        </mxCell>
        <mxCell id="0a_yVBSJP2wJGOrJ4KRv-27" value="&amp;lt;&amp;lt;extend&amp;gt;&amp;gt;" style="edgeStyle=none;html=1;startArrow=open;endArrow=none;startSize=12;verticalAlign=bottom;dashed=1;labelBackgroundColor=none;entryX=0;entryY=0.5;entryDx=0;entryDy=0;exitX=1;exitY=0;exitDx=0;exitDy=0;" edge="1" parent="1" source="0a_yVBSJP2wJGOrJ4KRv-24" target="0a_yVBSJP2wJGOrJ4KRv-25">
          <mxGeometry width="160" relative="1" as="geometry">
            <mxPoint x="250" y="870" as="sourcePoint" />
            <mxPoint x="410" y="870" as="targetPoint" />
          </mxGeometry>
        </mxCell>
        <mxCell id="0a_yVBSJP2wJGOrJ4KRv-28" value="&amp;lt;&amp;lt;extend&amp;gt;&amp;gt;" style="edgeStyle=none;html=1;startArrow=open;endArrow=none;startSize=12;verticalAlign=bottom;dashed=1;labelBackgroundColor=none;entryX=0;entryY=0.5;entryDx=0;entryDy=0;exitX=1;exitY=0.5;exitDx=0;exitDy=0;" edge="1" parent="1" source="0a_yVBSJP2wJGOrJ4KRv-24" target="0a_yVBSJP2wJGOrJ4KRv-26">
          <mxGeometry width="160" relative="1" as="geometry">
            <mxPoint x="160" y="860" as="sourcePoint" />
            <mxPoint x="320" y="860" as="targetPoint" />
          </mxGeometry>
        </mxCell>
        <mxCell id="0a_yVBSJP2wJGOrJ4KRv-29" value="Выбрать место сохранения" style="ellipse;whiteSpace=wrap;html=1;" vertex="1" parent="1">
          <mxGeometry x="670" y="740" width="140" height="70" as="geometry" />
        </mxCell>
        <mxCell id="0a_yVBSJP2wJGOrJ4KRv-30" value="&amp;lt;&amp;lt;include&amp;gt;&amp;gt;" style="edgeStyle=none;html=1;endArrow=open;verticalAlign=bottom;dashed=1;labelBackgroundColor=none;exitX=1;exitY=0.5;exitDx=0;exitDy=0;entryX=0;entryY=0;entryDx=0;entryDy=0;" edge="1" parent="1" source="0a_yVBSJP2wJGOrJ4KRv-25" target="0a_yVBSJP2wJGOrJ4KRv-29">
          <mxGeometry width="160" relative="1" as="geometry">
            <mxPoint x="420" y="920" as="sourcePoint" />
            <mxPoint x="580" y="920" as="targetPoint" />
          </mxGeometry>
        </mxCell>
        <mxCell id="0a_yVBSJP2wJGOrJ4KRv-31" value="&amp;lt;&amp;lt;include&amp;gt;&amp;gt;" style="edgeStyle=none;html=1;endArrow=open;verticalAlign=bottom;dashed=1;labelBackgroundColor=none;entryX=0;entryY=1;entryDx=0;entryDy=0;exitX=1;exitY=0.5;exitDx=0;exitDy=0;" edge="1" parent="1" source="0a_yVBSJP2wJGOrJ4KRv-26" target="0a_yVBSJP2wJGOrJ4KRv-29">
          <mxGeometry width="160" relative="1" as="geometry">
            <mxPoint x="550" y="920" as="sourcePoint" />
            <mxPoint x="710" y="920" as="targetPoint" />
          </mxGeometry>
        </mxCell>
        <mxCell id="0a_yVBSJP2wJGOrJ4KRv-32" value="&lt;span id=&quot;docs-internal-guid-a2727379-7fff-6ba3-ea59-ed218590dcc9&quot;&gt;&lt;span style=&quot;font-size: 10pt ; font-family: &amp;#34;arial&amp;#34; ; color: rgb(44 , 45 , 48) ; background-color: transparent ; vertical-align: baseline&quot;&gt;Редактировать источники света&lt;/span&gt;&lt;/span&gt;" style="ellipse;whiteSpace=wrap;html=1;" vertex="1" parent="1">
          <mxGeometry x="180" y="820" width="140" height="70" as="geometry" />
        </mxCell>
        <mxCell id="0a_yVBSJP2wJGOrJ4KRv-33" value="&lt;span id=&quot;docs-internal-guid-a2727379-7fff-6ba3-ea59-ed218590dcc9&quot;&gt;&lt;span style=&quot;font-size: 10pt ; font-family: &amp;#34;arial&amp;#34; ; color: rgb(44 , 45 , 48) ; background-color: transparent ; vertical-align: baseline&quot;&gt;Редактировать источники света&lt;/span&gt;&lt;/span&gt;" style="ellipse;whiteSpace=wrap;html=1;" vertex="1" parent="1">
          <mxGeometry x="460" y="870" width="140" height="70" as="geometry" />
        </mxCell>
        <mxCell id="0a_yVBSJP2wJGOrJ4KRv-34" value="&lt;span id=&quot;docs-internal-guid-a2727379-7fff-6ba3-ea59-ed218590dcc9&quot;&gt;&lt;span style=&quot;font-size: 10pt ; font-family: &amp;#34;arial&amp;#34; ; color: rgb(44 , 45 , 48) ; background-color: transparent ; vertical-align: baseline&quot;&gt;Редактировать источники света&lt;/span&gt;&lt;/span&gt;" style="ellipse;whiteSpace=wrap;html=1;" vertex="1" parent="1">
          <mxGeometry x="460" y="960" width="140" height="70" as="geometry" />
        </mxCell>
        <mxCell id="0a_yVBSJP2wJGOrJ4KRv-35" value="&lt;span id=&quot;docs-internal-guid-a2727379-7fff-6ba3-ea59-ed218590dcc9&quot;&gt;&lt;span style=&quot;font-size: 10pt ; font-family: &amp;#34;arial&amp;#34; ; color: rgb(44 , 45 , 48) ; background-color: transparent ; vertical-align: baseline&quot;&gt;Редактировать источники света&lt;/span&gt;&lt;/span&gt;" style="ellipse;whiteSpace=wrap;html=1;" vertex="1" parent="1">
          <mxGeometry x="320" y="1010" width="140" height="70" as="geometry" />
        </mxCell>
        <mxCell id="0a_yVBSJP2wJGOrJ4KRv-36" value="&amp;lt;&amp;lt;extend&amp;gt;&amp;gt;" style="edgeStyle=none;html=1;startArrow=open;endArrow=none;startSize=12;verticalAlign=bottom;dashed=1;labelBackgroundColor=none;entryX=0;entryY=0.5;entryDx=0;entryDy=0;exitX=1;exitY=0.5;exitDx=0;exitDy=0;" edge="1" parent="1" source="0a_yVBSJP2wJGOrJ4KRv-32" target="0a_yVBSJP2wJGOrJ4KRv-33">
          <mxGeometry width="160" relative="1" as="geometry">
            <mxPoint x="270" y="930" as="sourcePoint" />
            <mxPoint x="430" y="930" as="targetPoint" />
          </mxGeometry>
        </mxCell>
        <mxCell id="0a_yVBSJP2wJGOrJ4KRv-37" value="&amp;lt;&amp;lt;extend&amp;gt;&amp;gt;" style="edgeStyle=none;html=1;startArrow=open;endArrow=none;startSize=12;verticalAlign=bottom;dashed=1;labelBackgroundColor=none;entryX=0;entryY=0.5;entryDx=0;entryDy=0;exitX=0.936;exitY=0.771;exitDx=0;exitDy=0;exitPerimeter=0;" edge="1" parent="1" source="0a_yVBSJP2wJGOrJ4KRv-32" target="0a_yVBSJP2wJGOrJ4KRv-34">
          <mxGeometry width="160" relative="1" as="geometry">
            <mxPoint x="260" y="950" as="sourcePoint" />
            <mxPoint x="420" y="950" as="targetPoint" />
          </mxGeometry>
        </mxCell>
        <mxCell id="0a_yVBSJP2wJGOrJ4KRv-38" value="&amp;lt;&amp;lt;extend&amp;gt;&amp;gt;" style="edgeStyle=none;html=1;startArrow=open;endArrow=none;startSize=12;verticalAlign=bottom;dashed=1;labelBackgroundColor=none;entryX=0.5;entryY=0;entryDx=0;entryDy=0;exitX=0.5;exitY=1;exitDx=0;exitDy=0;" edge="1" parent="1" source="0a_yVBSJP2wJGOrJ4KRv-32" target="0a_yVBSJP2wJGOrJ4KRv-35">
          <mxGeometry width="160" relative="1" as="geometry">
            <mxPoint x="80" y="970" as="sourcePoint" />
            <mxPoint x="240" y="970" as="targetPoint" />
          </mxGeometry>
        </mxCell>
        <mxCell id="0a_yVBSJP2wJGOrJ4KRv-39" value="" style="edgeStyle=none;html=1;endArrow=none;verticalAlign=bottom;exitX=1;exitY=0.3333333333333333;exitDx=0;exitDy=0;exitPerimeter=0;entryX=0;entryY=0.5;entryDx=0;entryDy=0;" edge="1" parent="1" source="0a_yVBSJP2wJGOrJ4KRv-1" target="0a_yVBSJP2wJGOrJ4KRv-2">
          <mxGeometry width="160" relative="1" as="geometry">
            <mxPoint x="-10" y="330" as="sourcePoint" />
            <mxPoint x="150" y="330" as="targetPoint" />
          </mxGeometry>
        </mxCell>
        <mxCell id="0a_yVBSJP2wJGOrJ4KRv-40" value="" style="edgeStyle=none;html=1;endArrow=none;verticalAlign=bottom;exitX=1;exitY=0.3333333333333333;exitDx=0;exitDy=0;exitPerimeter=0;entryX=0;entryY=0.5;entryDx=0;entryDy=0;" edge="1" parent="1" source="0a_yVBSJP2wJGOrJ4KRv-1" target="0a_yVBSJP2wJGOrJ4KRv-3">
          <mxGeometry width="160" relative="1" as="geometry">
            <mxPoint x="-10" y="560" as="sourcePoint" />
            <mxPoint x="150" y="560" as="targetPoint" />
          </mxGeometry>
        </mxCell>
        <mxCell id="0a_yVBSJP2wJGOrJ4KRv-41" value="" style="edgeStyle=none;html=1;endArrow=none;verticalAlign=bottom;exitX=1;exitY=0.3333333333333333;exitDx=0;exitDy=0;exitPerimeter=0;entryX=0;entryY=0.5;entryDx=0;entryDy=0;" edge="1" parent="1" source="0a_yVBSJP2wJGOrJ4KRv-1" target="0a_yVBSJP2wJGOrJ4KRv-4">
          <mxGeometry width="160" relative="1" as="geometry">
            <mxPoint x="-20" y="540" as="sourcePoint" />
            <mxPoint x="140" y="540" as="targetPoint" />
          </mxGeometry>
        </mxCell>
        <mxCell id="0a_yVBSJP2wJGOrJ4KRv-42" value="" style="edgeStyle=none;html=1;endArrow=none;verticalAlign=bottom;exitX=1;exitY=0.3333333333333333;exitDx=0;exitDy=0;exitPerimeter=0;entryX=0;entryY=0.5;entryDx=0;entryDy=0;" edge="1" parent="1" source="0a_yVBSJP2wJGOrJ4KRv-1" target="0a_yVBSJP2wJGOrJ4KRv-7">
          <mxGeometry width="160" relative="1" as="geometry">
            <mxPoint x="40" y="580" as="sourcePoint" />
            <mxPoint x="200" y="580" as="targetPoint" />
          </mxGeometry>
        </mxCell>
        <mxCell id="0a_yVBSJP2wJGOrJ4KRv-43" value="" style="edgeStyle=none;html=1;endArrow=none;verticalAlign=bottom;exitX=1;exitY=0.3333333333333333;exitDx=0;exitDy=0;exitPerimeter=0;entryX=0;entryY=0.5;entryDx=0;entryDy=0;" edge="1" parent="1" source="0a_yVBSJP2wJGOrJ4KRv-1" target="0a_yVBSJP2wJGOrJ4KRv-11">
          <mxGeometry width="160" relative="1" as="geometry">
            <mxPoint x="40" y="580" as="sourcePoint" />
            <mxPoint x="200" y="580" as="targetPoint" />
          </mxGeometry>
        </mxCell>
        <mxCell id="0a_yVBSJP2wJGOrJ4KRv-44" value="" style="edgeStyle=none;html=1;endArrow=none;verticalAlign=bottom;exitX=1;exitY=0.3333333333333333;exitDx=0;exitDy=0;exitPerimeter=0;entryX=0;entryY=0.5;entryDx=0;entryDy=0;" edge="1" parent="1" source="0a_yVBSJP2wJGOrJ4KRv-1" target="0a_yVBSJP2wJGOrJ4KRv-13">
          <mxGeometry width="160" relative="1" as="geometry">
            <mxPoint x="70" y="570" as="sourcePoint" />
            <mxPoint x="230" y="570" as="targetPoint" />
          </mxGeometry>
        </mxCell>
        <mxCell id="0a_yVBSJP2wJGOrJ4KRv-45" value="" style="edgeStyle=none;html=1;endArrow=none;verticalAlign=bottom;exitX=1;exitY=0.3333333333333333;exitDx=0;exitDy=0;exitPerimeter=0;entryX=0;entryY=0.5;entryDx=0;entryDy=0;" edge="1" parent="1" source="0a_yVBSJP2wJGOrJ4KRv-1" target="0a_yVBSJP2wJGOrJ4KRv-23">
          <mxGeometry width="160" relative="1" as="geometry">
            <mxPoint x="20" y="640" as="sourcePoint" />
            <mxPoint x="180" y="640" as="targetPoint" />
          </mxGeometry>
        </mxCell>
        <mxCell id="0a_yVBSJP2wJGOrJ4KRv-46" value="" style="edgeStyle=none;html=1;endArrow=none;verticalAlign=bottom;exitX=1;exitY=0.3333333333333333;exitDx=0;exitDy=0;exitPerimeter=0;entryX=0;entryY=0.5;entryDx=0;entryDy=0;" edge="1" parent="1" source="0a_yVBSJP2wJGOrJ4KRv-1" target="0a_yVBSJP2wJGOrJ4KRv-24">
          <mxGeometry width="160" relative="1" as="geometry">
            <mxPoint x="-30" y="690" as="sourcePoint" />
            <mxPoint x="130" y="690" as="targetPoint" />
          </mxGeometry>
        </mxCell>
        <mxCell id="0a_yVBSJP2wJGOrJ4KRv-47" value="" style="edgeStyle=none;html=1;endArrow=none;verticalAlign=bottom;exitX=1;exitY=0.3333333333333333;exitDx=0;exitDy=0;exitPerimeter=0;entryX=0;entryY=0.5;entryDx=0;entryDy=0;" edge="1" parent="1" source="0a_yVBSJP2wJGOrJ4KRv-1" target="0a_yVBSJP2wJGOrJ4KRv-32">
          <mxGeometry width="160" relative="1" as="geometry">
            <mxPoint x="20" y="710" as="sourcePoint" />
            <mxPoint x="180" y="710" as="targetPoint" />
          </mxGeometry>
        </mxCell>
      </root>
    </mxGraphModel>
  </diagram>
</mxfile>
